<svg width="56" height="56" viewBox="0 0 56 56" fill="none" xmlns="http://www.w3.org/2000/svg">
<rect width="56" height="56" rx="28" fill="#E982C7"/>
<g clip-path="url(#clip0_9_2140)">
<path d="M34.3 21.7097C33.91 21.3197 33.28 21.3197 32.89 21.7097L28 26.5897L23.11 21.6997C22.72 21.3097 22.09 21.3097 21.7 21.6997C21.31 22.0897 21.31 22.7197 21.7 23.1097L26.59 27.9997L21.7 32.8897C21.31 33.2797 21.31 33.9097 21.7 34.2997C22.09 34.6897 22.72 34.6897 23.11 34.2997L28 29.4097L32.89 34.2997C33.28 34.6897 33.91 34.6897 34.3 34.2997C34.69 33.9097 34.69 33.2797 34.3 32.8897L29.41 27.9997L34.3 23.1097C34.68 22.7297 34.68 22.0897 34.3 21.7097Z" fill="#FCDDEC"/>
</g>
<defs>
<clipPath id="clip0_9_2140">
<rect width="24" height="24" fill="white" transform="translate(16 16)"/>
</clipPath>
</defs>
</svg>
