<svg width="85" height="69" viewBox="0 0 85 69" fill="none" xmlns="http://www.w3.org/2000/svg">
<path d="M5.07657 52.7611C5.35458 52.7611 5.58022 52.5356 5.58022 52.2575V45.4089C5.58022 45.1308 5.35458 44.9053 5.07657 44.9053H4.53264C4.25437 44.9053 4.02899 45.1308 4.02899 45.4089V52.2575C4.02899 52.5356 4.25437 52.7611 4.53264 52.7611H5.07657Z" fill="white"/>
<path d="M16.9396 52.7611C17.2179 52.7611 17.4432 52.5356 17.4432 52.2575V45.4089C17.4432 45.1308 17.2179 44.9053 16.9396 44.9053H16.4178C16.1398 44.9053 15.9142 45.1308 15.9142 45.4089V50.1019L12.7936 45.1408C12.7014 44.9942 12.5405 44.9053 12.3673 44.9053H11.2434C10.9654 44.9053 10.7397 45.1308 10.7397 45.4089V52.2575C10.7397 52.5356 10.9654 52.7611 11.2434 52.7611H11.7652C12.0434 52.7611 12.2688 52.5356 12.2688 52.2575V47.1878L15.688 52.529C15.7807 52.6736 15.9406 52.7611 16.1121 52.7611H16.9396Z" fill="white"/>
<path d="M27.8702 46.3568C28.1485 46.3568 28.3739 46.1313 28.3739 45.8531V45.4089C28.3739 45.1308 28.1485 44.9053 27.8702 44.9053H22.3735C22.0954 44.9053 21.8698 45.1308 21.8698 45.4089V45.8531C21.8698 46.1313 22.0954 46.3568 22.3735 46.3568H24.3518V52.2575C24.3518 52.5356 24.5774 52.7611 24.8554 52.7611H25.3883C25.6665 52.7611 25.8919 52.5356 25.8919 52.2575V46.3568H27.8702Z" fill="white"/>
<path d="M37.2126 52.7611C37.4906 52.7611 37.7163 52.5356 37.7163 52.2575V51.8243C37.7163 51.5462 37.4906 51.3207 37.2126 51.3207H34.3258V49.5035H36.8913C37.1693 49.5035 37.395 49.2781 37.395 48.9999V48.6443C37.395 48.3662 37.1693 48.1407 36.8913 48.1407H34.3258V46.3457H37.2126C37.4906 46.3457 37.7163 46.1202 37.7163 45.8421V45.4089C37.7163 45.1308 37.4906 44.9053 37.2126 44.9053H33.3003C33.0221 44.9053 32.7967 45.1308 32.7967 45.4089V52.2575C32.7967 52.5356 33.0221 52.7611 33.3003 52.7611H37.2126Z" fill="white"/>
<path d="M46.2753 52.486C46.3611 52.6548 46.5347 52.7611 46.724 52.7611H47.2891C47.6676 52.7611 47.9109 52.359 47.7351 52.0237L46.4375 49.5479C47.4679 49.2487 48.1106 48.4177 48.1106 47.3207C48.1106 45.9579 47.1355 44.9053 45.6064 44.9053H43.0409C42.7626 44.9053 42.5372 45.1308 42.5372 45.4089V52.2575C42.5372 52.5356 42.7626 52.7611 43.0409 52.7611H43.5737C43.852 52.7611 44.0774 52.5356 44.0774 52.2575V49.7362H44.8751L46.2753 52.486ZM44.0774 48.4177V46.2349H45.3184C46.094 46.2349 46.5483 46.667 46.5483 47.3318C46.5483 47.9745 46.094 48.4177 45.3184 48.4177H44.0774Z" fill="white"/>
<path d="M59.0402 52.7611C59.3182 52.7611 59.5438 52.5356 59.5438 52.2575V45.4089C59.5438 45.1308 59.3182 44.9053 59.0402 44.9053H58.5184C58.2402 44.9053 58.0148 45.1308 58.0148 45.4089V50.1019L54.8942 45.1408C54.802 44.9942 54.6411 44.9053 54.4679 44.9053H53.344C53.0657 44.9053 52.8403 45.1308 52.8403 45.4089V52.2575C52.8403 52.5356 53.0657 52.7611 53.344 52.7611H53.8657C54.1438 52.7611 54.3694 52.5356 54.3694 52.2575V47.1878L57.7886 52.529C57.8811 52.6736 58.041 52.7611 58.2127 52.7611H59.0402Z" fill="white"/>
<path d="M69.1284 52.7611C69.4067 52.7611 69.6321 52.5356 69.6321 52.2575V51.8243C69.6321 51.5462 69.4067 51.3207 69.1284 51.3207H66.2415V49.5035H68.8071C69.0853 49.5035 69.3107 49.2781 69.3107 48.9999V48.6443C69.3107 48.3662 69.0853 48.1407 68.8071 48.1407H66.2415V46.3457H69.1284C69.4067 46.3457 69.6321 46.1202 69.6321 45.8421V45.4089C69.6321 45.1308 69.4067 44.9053 69.1284 44.9053H65.2161C64.9381 44.9053 64.7125 45.1308 64.7125 45.4089V52.2575C64.7125 52.5356 64.9381 52.7611 65.2161 52.7611H69.1284Z" fill="white"/>
<path d="M79.7114 46.3568C79.9894 46.3568 80.215 46.1313 80.215 45.8531V45.4089C80.215 45.1308 79.9894 44.9053 79.7114 44.9053H74.2146C73.9363 44.9053 73.7109 45.1308 73.7109 45.4089V45.8531C73.7109 46.1313 73.9363 46.3568 74.2146 46.3568H76.1929V52.2575C76.1929 52.5356 76.4183 52.7611 76.6965 52.7611H77.2294C77.5074 52.7611 77.733 52.5356 77.733 52.2575V46.3568H79.7114Z" fill="white"/>
<path d="M4.02211 68.5398C5.9556 68.5398 7.06261 67.4152 7.50758 66.324C7.60906 66.0756 7.45494 65.8086 7.19833 65.731L6.71559 65.5851C6.4469 65.5038 6.16788 65.6619 6.03315 65.9083C5.71132 66.4981 5.08102 67.044 4.02211 67.044C2.75897 67.044 1.58446 66.1243 1.58446 64.4512C1.58446 62.6673 2.82545 61.8252 3.99995 61.8252C5.06289 61.8252 5.66751 62.3306 5.97146 62.9105C6.10618 63.1675 6.39427 63.336 6.67102 63.2487L7.15175 63.0971C7.40458 63.0174 7.55592 62.7534 7.45796 62.507C7.01375 61.3876 5.91707 60.3516 3.99995 60.3516C1.89472 60.3516 0 61.9471 0 64.4512C0 66.9553 1.82824 68.5398 4.02211 68.5398Z" fill="white"/>
<path d="M13.2835 64.4401C13.2835 62.6673 14.5245 61.8252 15.7322 61.8252C16.951 61.8252 18.192 62.6673 18.192 64.4401C18.192 66.213 16.951 67.0551 15.7322 67.0551C14.5245 67.0551 13.2835 66.213 13.2835 64.4401ZM11.699 64.4512C11.699 66.9775 13.6048 68.5398 15.7322 68.5398C17.8707 68.5398 19.7765 66.9775 19.7765 64.4512C19.7765 61.9139 17.8707 60.3516 15.7322 60.3516C13.6048 60.3516 11.699 61.9139 11.699 64.4512Z" fill="white"/>
<path d="M32.7304 68.3734C33.0087 68.3734 33.2341 68.1479 33.2341 67.8698V61.0212C33.2341 60.7431 33.0087 60.5176 32.7304 60.5176H31.49C31.285 60.5176 31.1006 60.6418 31.0233 60.8317L28.8463 66.1906L26.6152 60.8278C26.5371 60.64 26.3538 60.5176 26.1503 60.5176H24.9733C24.695 60.5176 24.4697 60.7431 24.4697 61.0212V67.8698C24.4697 68.1479 24.695 68.3734 24.9733 68.3734H25.4286C25.7069 68.3734 25.9322 68.1479 25.9322 67.8698V62.9109L28.0639 68.0623C28.1417 68.2506 28.3256 68.3734 28.5293 68.3734H29.1291C29.3334 68.3734 29.5174 68.25 29.595 68.061L31.7272 62.8666V67.8698C31.7272 68.1479 31.9525 68.3734 32.2308 68.3734H32.7304Z" fill="white"/>
<path d="M39.9375 64.0965V61.8472H41.1453C41.9098 61.8472 42.3752 62.2793 42.3752 62.9774C42.3752 63.6533 41.9098 64.0965 41.1453 64.0965H39.9375ZM41.3337 65.415C42.8849 65.415 43.9153 64.3956 43.9153 62.9663C43.9153 61.548 42.8849 60.5176 41.3337 60.5176H38.901C38.623 60.5176 38.3974 60.7431 38.3974 61.0212V67.8698C38.3974 68.1479 38.623 68.3734 38.901 68.3734H39.4228C39.7011 68.3734 39.9265 68.1479 39.9265 67.8698V65.415H41.3337Z" fill="white"/>
<path d="M51.3776 68.5507C53.0618 68.5507 54.4025 67.5202 54.4025 65.5923V61.0212C54.4025 60.7431 54.1771 60.5176 53.8989 60.5176H53.3771C53.0988 60.5176 52.8735 60.7431 52.8735 61.0212V65.4815C52.8735 66.5119 52.3084 67.0549 51.3776 67.0549C50.4691 67.0549 49.8929 66.5119 49.8929 65.4815V61.0212C49.8929 60.7431 49.6675 60.5176 49.3892 60.5176H48.8675C48.5892 60.5176 48.3638 60.7431 48.3638 61.0212V65.5923C48.3638 67.5202 49.7045 68.5507 51.3776 68.5507Z" fill="white"/>
<path d="M64.7602 61.9691C65.0382 61.9691 65.2638 61.7436 65.2638 61.4654V61.0212C65.2638 60.7431 65.0382 60.5176 64.7602 60.5176H59.2634C58.9851 60.5176 58.7598 60.7431 58.7598 61.0212V61.4654C58.7598 61.7436 58.9851 61.9691 59.2634 61.9691H61.2417V67.8698C61.2417 68.1479 61.4671 68.3734 61.7454 68.3734H62.2782C62.5562 68.3734 62.7819 68.1479 62.7819 67.8698V61.9691H64.7602Z" fill="white"/>
<path d="M74.1018 68.3734C74.3798 68.3734 74.6054 68.1479 74.6054 67.8698V67.4366C74.6054 67.1585 74.3798 66.933 74.1018 66.933H71.2149V65.1158H73.7805C74.0585 65.1158 74.2841 64.8904 74.2841 64.6122V64.2566C74.2841 63.9785 74.0585 63.753 73.7805 63.753H71.2149V61.958H74.1018C74.3798 61.958 74.6054 61.7325 74.6054 61.4544V61.0212C74.6054 60.7431 74.3798 60.5176 74.1018 60.5176H70.1895C69.9112 60.5176 69.6859 60.7431 69.6859 61.0212V67.8698C69.6859 68.1479 69.9112 68.3734 70.1895 68.3734H74.1018Z" fill="white"/>
<path d="M83.1648 68.0983C83.2507 68.2671 83.4242 68.3734 83.6135 68.3734H84.1786C84.5574 68.3734 84.8004 67.9713 84.6246 67.636L83.327 65.1602C84.3574 64.861 85.0001 64.03 85.0001 62.9331C85.0001 61.5702 84.025 60.5176 82.496 60.5176H79.4268V67.8698C79.4268 68.1479 79.6524 68.3734 79.9304 68.3734H80.4633C80.7415 68.3734 80.9669 68.1479 80.9669 67.8698V65.3485H81.7647L83.1648 68.0983ZM80.9669 64.03V61.8472H82.2079C82.9835 61.8472 83.4378 62.2793 83.4378 62.9441C83.4378 63.5868 82.9835 64.03 82.2079 64.03H80.9669Z" fill="white"/>
<g clip-path="url(#clip0_193_53)">
<path d="M62.5321 0C58.6256 0 54.3669 1.99066 49.8659 5.91165C47.7305 7.76962 45.8863 9.76027 44.5035 11.3528C44.5035 11.3528 44.5035 11.3528 44.5156 11.3649V11.3528C44.5156 11.3528 46.6992 13.7175 49.1137 16.251C50.4119 14.7188 52.2804 12.6317 54.4276 10.7496C58.4314 7.26291 61.0397 6.52697 62.5321 6.52697C68.1496 6.52697 72.7113 10.9547 72.7113 16.3958C72.7113 21.8008 68.1375 26.2285 62.5321 26.2647C62.2773 26.2647 61.9497 26.2285 61.5372 26.144C63.1751 26.8438 64.9344 27.3505 66.6087 27.3505C76.8968 27.3505 78.9109 20.6787 79.0443 20.1962C79.3476 18.9776 79.5054 17.6988 79.5054 16.3838C79.5054 7.3594 71.8862 0 62.5321 0Z" fill="url(#paint0_linear_193_53)"/>
<path d="M26.5959 32.8158C30.5025 32.8158 34.761 30.825 39.2621 26.904C41.3975 25.0461 43.2417 23.0554 44.6245 21.4629C44.6245 21.4629 44.6245 21.4629 44.6124 21.4508V21.4629C44.6124 21.4629 42.4288 19.0982 40.0143 16.5647C38.7162 18.0969 36.8478 20.184 34.7004 22.0661C30.6966 25.5528 28.0882 26.2887 26.5959 26.2887C20.9786 26.2767 16.4168 21.8489 16.4168 16.4078C16.4168 11.0029 20.9907 6.57515 26.5959 6.53895C26.8507 6.53895 27.1782 6.57515 27.5907 6.6596C25.9529 5.95986 24.1937 5.45312 22.5194 5.45312C12.2311 5.45312 10.2292 12.1249 10.0837 12.5954C9.78034 13.826 9.62262 15.0928 9.62262 16.4078C9.62262 25.4563 17.2418 32.8158 26.5959 32.8158Z" fill="url(#paint1_linear_193_53)"/>
<path d="M66.5845 27.2057C61.3188 27.073 55.8471 22.9469 54.7309 21.9214C51.8436 19.2672 45.1826 12.0887 44.6612 11.5217C39.7839 6.08056 33.1717 0 26.5959 0H26.5838H26.5716C18.5885 0.0361938 11.8793 5.41701 10.0837 12.5955C10.2171 12.1249 12.8499 5.32049 22.5073 5.56179C27.7727 5.69451 33.2687 9.88092 34.3971 10.9064C37.2846 13.5606 43.9454 20.7391 44.4671 21.3061C49.3442 26.7352 55.9563 32.8158 62.5321 32.8158H62.5442H62.5563C70.5395 32.7796 77.2608 27.3988 79.0443 20.2203C78.8987 20.6908 76.2538 27.435 66.5845 27.2057Z" fill="#29ABE2"/>
</g>
<defs>
<linearGradient id="paint0_linear_193_53" x1="53.6966" y1="2.16374" x2="76.6398" y2="26.0558" gradientUnits="userSpaceOnUse">
<stop offset="0.21" stop-color="#F15A24"/>
<stop offset="0.6841" stop-color="#FBB03B"/>
</linearGradient>
<linearGradient id="paint1_linear_193_53" x1="35.4314" y1="30.6519" x2="12.4881" y2="6.75994" gradientUnits="userSpaceOnUse">
<stop offset="0.21" stop-color="#ED1E79"/>
<stop offset="0.8929" stop-color="#522785"/>
</linearGradient>
<clipPath id="clip0_193_53">
<rect width="69.7642" height="32.8774" fill="white" transform="translate(9.62262)"/>
</clipPath>
</defs>
</svg>
