<svg width="77" height="83" viewBox="0 0 78 84" fill="none" xmlns="http://www.w3.org/2000/svg">
<g clip-path="url(#clip0_115_2212)">
<path d="M64.2539 14.8063C65.4871 12.9287 67.2012 11.8021 69.3963 11.4266C70.1116 11.3014 70.9872 11.2138 72.0233 11.1637C73.0833 11.1137 73.9836 11.3515 74.7241 11.8772C75.4883 12.4029 76.0554 13.0789 76.4253 13.9051C77.0672 15.3821 77.1657 17.1971 76.7217 19.35C76.4749 20.5267 76.1791 21.8285 75.8337 23.2554C75.4883 24.6574 74.9702 26.0468 74.28 27.4237C73.5892 28.8006 72.689 30.0899 71.5791 31.2915C70.4692 32.4932 69.0263 33.4445 67.2505 34.1455C66.19 34.571 65.2528 34.7213 64.4389 34.5961C63.6496 34.496 63.0576 34.3333 62.663 34.108C62.2684 33.8826 61.9971 33.5572 61.8491 33.1316C61.3559 34.5586 60.8872 35.998 60.4432 37.4501C60.024 38.9271 59.4567 40.3291 58.7414 41.6559C58.2481 41.9813 57.6439 42.2191 56.9286 42.3694C56.2133 42.5446 55.5104 42.5071 54.8198 42.2567C54.1292 42.0314 53.6359 41.6058 53.34 40.98C53.0193 40.3791 52.859 39.7157 52.859 38.9897C52.859 38.0134 53.0933 36.8242 53.5619 35.4222C54.2526 33.3444 54.8198 31.7421 55.2638 30.6156C55.683 29.489 55.9544 28.7631 56.0777 28.4376C56.201 28.0871 56.3244 27.7241 56.4476 27.3486C56.9902 25.8966 57.3849 24.72 57.6316 23.8188C57.9029 22.8924 58.1495 22.0913 58.3715 21.4154V21.3779C58.6181 20.2764 59.0004 19.1122 59.5184 17.8855C60.061 16.6338 60.4309 15.8702 60.6282 15.5949C61.0475 15.1693 61.4791 14.9064 61.9231 14.8063C62.3671 14.7061 62.8727 14.6435 63.44 14.6185H63.5509L64.2539 14.8063ZM67.0656 21.0774C66.7696 21.6032 66.2763 22.0913 65.5857 22.542L65.2528 23.3305C65.0061 23.9814 64.7718 24.6449 64.5498 25.3208C64.3278 25.9968 64.0812 26.6601 63.8099 27.311C64.0565 27.5614 64.2416 27.7993 64.3648 28.0245C65.746 26.7978 67.0039 25.1831 68.1385 23.1804C68.5824 22.3542 68.866 21.528 68.9894 20.7019C69.1374 19.8758 69.1744 19.35 69.1003 19.1248C69.0263 18.8994 68.9031 18.7868 68.7304 18.7868C68.5824 18.7868 68.4221 18.8368 68.2494 18.937C68.1015 19.0121 67.9781 19.0997 67.8795 19.1998C67.8055 19.2749 67.8178 19.2749 67.9165 19.1998C67.6452 19.5253 67.4478 19.8132 67.3245 20.0635C67.2012 20.2889 67.1149 20.6268 67.0656 21.0774Z" fill="currentColor"/>
<path d="M48.3337 13.905C48.6543 13.0789 49.4189 12.5156 50.6274 12.2153C51.762 11.9148 52.8225 11.9524 53.8091 12.3279C54.8203 12.7285 55.2767 13.3793 55.178 14.2806C54.9067 15.1568 54.5614 16.2333 54.1421 17.51C53.7475 18.7618 53.3652 20.0511 52.9952 21.3779C52.0086 24.7826 51.4413 27.1859 51.2934 28.5878C50.9234 30.841 50.3068 32.0551 49.4436 32.2303C49.1969 32.2804 48.9626 32.318 48.7407 32.343C48.1981 32.368 47.8527 32.5183 47.7048 32.7936C47.5567 33.069 47.3101 33.2693 46.9648 33.3945C46.6195 33.5447 46.2372 33.6073 45.818 33.5822C45.4233 33.5822 45.0164 33.4821 44.5971 33.2818C44.1778 33.1066 43.8201 32.8437 43.5242 32.4932C42.8336 31.642 42.698 30.503 43.1172 29.076C43.5119 26.3473 44.5108 22.88 46.1139 18.6741C46.8785 16.5963 47.6184 15.0066 48.3337 13.905ZM55.326 8.27229C54.1174 8.52261 53.1309 8.44752 52.3663 8.04695C51.6264 7.64638 51.1947 7.17075 51.0714 6.61999C50.9481 6.0442 51.1208 5.45589 51.5894 4.85505C52.132 4.10402 52.9459 3.61584 54.0311 3.39053C54.5244 3.34046 54.882 3.31543 55.104 3.31543C55.326 3.31543 55.5973 3.3655 55.9179 3.46564C56.7318 3.54074 57.2621 3.90374 57.5087 4.55464C57.854 5.1054 57.8787 5.73127 57.5827 6.43223C57.3114 7.1332 56.5592 7.74652 55.326 8.27229Z" fill="currentColor"/>
<path d="M41.6446 26.1469C41.6446 27.4737 41.8049 28.6252 42.1256 29.6016C42.1256 30.4027 41.9406 30.966 41.5706 31.2915C41.2006 31.6419 40.732 31.8172 40.1647 31.8172C39.6221 31.8422 39.0426 31.7296 38.4259 31.4792C37.8093 31.2539 37.279 30.966 36.8351 30.6155C36.4158 30.265 36.1445 29.9896 36.0212 29.7893C35.8979 29.5641 35.7005 29.2386 35.4292 28.813C35.01 26.8353 34.8127 25.546 34.8373 24.9452C34.862 24.3444 34.9113 23.8312 34.9853 23.4055C33.7521 24.0564 32.9012 24.6197 32.4326 25.0954C31.5693 25.9716 30.8417 27.0981 30.2498 28.4751C30.0525 29.5765 29.8921 30.1523 29.7688 30.2025C29.6455 30.2775 29.4852 30.3276 29.2879 30.3526C29.0906 30.3777 28.8809 30.4653 28.6589 30.6155C28.437 30.7657 28.2273 30.8909 28.03 30.991C27.8327 31.0912 27.6354 31.1913 27.4381 31.2915C26.9695 31.5668 26.6612 31.7045 26.5131 31.7045C25.1073 32.1551 23.7631 31.9548 22.4806 31.1037C21.938 30.7282 21.5186 30.2525 21.2227 29.6767C20.9268 29.0759 20.8528 28.4375 21.0007 27.7616C22.0613 23.1302 23.5165 18.4111 25.3663 13.6045C26.5008 10.6755 27.586 8.35975 28.6219 6.65741C28.8686 6.25686 29.1152 5.83127 29.3619 5.38065C29.8798 4.4794 30.2374 3.86605 30.4347 3.54061C30.1881 2.88971 30.1881 2.32643 30.4347 1.85078C30.706 1.35008 31.1007 0.962041 31.6187 0.686664C32.1613 0.386248 32.7778 0.185971 33.4685 0.0858327C34.159 -0.0143059 34.8127 -0.0268227 35.4292 0.0482816C36.9091 0.273593 37.6984 0.861906 37.797 1.81322C37.649 2.26384 37.4394 2.80209 37.1681 3.42795C36.9215 4.05382 36.6625 4.6922 36.3912 5.34309C36.1445 5.96896 35.8979 6.55727 35.6512 7.10803C35.4292 7.65883 35.2566 8.07189 35.1333 8.34726C35.0346 8.59758 34.8743 9.04819 34.6523 9.69908C34.455 10.325 34.233 11.0134 33.9864 11.7645C33.7644 12.4904 33.5548 13.1664 33.3574 13.7923L32.9135 15.1066C32.8148 15.4571 32.6545 15.9953 32.4326 16.7213C32.2106 17.4223 31.9763 18.2985 31.7296 19.3499C32.0502 19.0996 32.3092 18.8117 32.5065 18.4863C32.7286 18.1357 33.0368 17.7477 33.4315 17.3221C33.8507 16.8966 34.381 16.4835 35.0223 16.0829C35.6882 15.6573 36.3912 15.3819 37.1311 15.2568C38.7343 14.9814 40.1894 15.5071 41.4966 16.834C42.4832 17.8353 42.7915 19.3375 42.4216 21.3402C42.2735 22.1664 42.0886 23.005 41.8666 23.8561C41.6693 24.6823 41.5953 25.4459 41.6446 26.1469Z" fill="currentColor"/>
<path d="M7.32097 32.3426C6.06311 32.3926 4.90389 32.2299 3.84334 31.8544C2.80744 31.5039 1.95653 31.0158 1.2906 30.3899C0.64933 29.764 0.242372 29.038 0.0697236 28.2118C-0.102925 27.3607 0.0450595 26.497 0.513678 25.6208C1.15494 24.5694 2.43748 24.2564 4.36128 24.682C5.81646 24.9824 6.81536 25.1451 7.35796 25.1702C7.92524 25.1952 8.40617 25.1201 8.80081 24.9449C10.6013 24.344 11.6125 23.6932 11.8345 22.9922C11.9825 22.4665 11.6618 21.8531 10.8726 21.1521C10.552 20.8517 10.1944 20.5513 9.79973 20.2509C9.40508 19.9505 9.07211 19.6501 8.80081 19.3496C7.56759 18.4234 6.59339 17.3594 5.87812 16.1577C5.18753 14.931 4.90389 13.6042 5.02722 12.1773C5.15053 10.7503 5.38484 9.57363 5.73014 8.64737C6.07544 7.69605 6.50706 6.85739 7.02501 6.13138C7.93755 4.85462 9.12148 3.81569 10.5766 3.01458C12.2538 2.13837 13.598 1.57509 14.6092 1.32474C16.607 0.874124 18.6295 0.836572 20.6766 1.21209C21.3672 1.33726 21.9591 1.57509 22.4524 1.92557C22.9457 2.27605 23.439 2.63906 23.9322 3.01458C24.7955 3.89079 25.0051 4.77952 24.5612 5.68076C24.3886 6.08131 24.1173 6.40677 23.7473 6.65711C23.3773 6.90746 22.9827 7.04514 22.5634 7.07018C22.6127 7.74608 22.4894 8.2468 22.1934 8.57228C21.6262 9.14808 20.6396 9.5236 19.2337 9.69883C17.2113 9.54858 15.8424 9.66128 15.1272 10.0368C14.2886 10.4874 13.9803 11.4638 14.2023 12.9658C14.2516 13.2913 14.4489 13.6292 14.7942 13.9797C15.1642 14.3302 15.5834 14.7057 16.0521 15.1063C16.5454 15.5068 17.051 15.9575 17.569 16.4581C18.1116 16.9588 18.5802 17.5346 18.9747 18.1855C20.356 20.4887 20.245 23.18 18.6418 26.2592C17.4579 28.5624 15.4355 30.2898 12.5745 31.4413C11.0946 32.0422 9.34341 32.3426 7.32097 32.3426Z" fill="currentColor"/>
<path d="M64.2539 56.1139C65.4871 54.2363 67.2012 53.1097 69.3963 52.7342C70.1116 52.6091 70.9872 52.5214 72.0233 52.4714C73.0833 52.4213 73.9836 52.6591 74.7241 53.1849C75.4883 53.7106 76.0554 54.3865 76.4253 55.2126C77.0672 56.6897 77.1657 58.5047 76.7217 60.6577C76.4749 61.8343 76.1791 63.1361 75.8337 64.5631C75.4883 65.965 74.9702 67.3544 74.28 68.7313C73.5892 70.1082 72.689 71.3975 71.5791 72.5992C70.4692 73.8009 69.0263 74.7519 67.2505 75.4531C66.19 75.879 65.2528 76.0287 64.4389 75.9038C63.6496 75.8037 63.0576 75.6408 62.663 75.4159C62.2684 75.1902 61.9971 74.8651 61.8491 74.4393C61.3559 75.8658 60.8872 77.3055 60.4432 78.7576C60.024 80.2345 59.4567 81.637 58.7414 82.9635C58.2481 83.2892 57.6439 83.5266 56.9286 83.6771C56.2133 83.8524 55.5104 83.8144 54.8198 83.5646C54.1292 83.3389 53.6359 82.9131 53.34 82.2878C53.0193 81.6867 52.859 81.0234 52.859 80.2974C52.859 79.3208 53.0933 78.1316 53.5619 76.7299C54.2526 74.6518 54.8198 73.05 55.2638 71.9232C55.683 70.7967 55.9544 70.0707 56.0777 69.7452C56.201 69.3948 56.3244 69.0317 56.4476 68.6562C56.9902 67.2042 57.3849 66.0276 57.6316 65.1263C57.9029 64.2 58.1495 63.399 58.3715 62.723V62.6855C58.6181 61.5839 59.0004 60.4198 59.5184 59.1931C60.061 57.9414 60.4309 57.1779 60.6282 56.9025C61.0475 56.4769 61.4791 56.2141 61.9231 56.1139C62.3671 56.0138 62.8727 55.9512 63.44 55.9261H63.5509L64.2539 56.1139ZM67.0656 62.3851C66.7696 62.9108 66.2763 63.399 65.5857 63.8496L65.2528 64.6382C65.0061 65.2891 64.7718 65.9525 64.5498 66.6284C64.3278 67.3043 64.0812 67.9678 63.8099 68.6187C64.0565 68.869 64.2416 69.1068 64.3648 69.3322C65.746 68.1055 67.0039 66.4907 68.1385 64.488C68.5824 63.6618 68.866 62.8357 68.9894 62.0095C69.1374 61.1834 69.1744 60.6577 69.1003 60.4324C69.0263 60.2071 68.9031 60.0944 68.7304 60.0944C68.5824 60.0944 68.4221 60.1445 68.2494 60.2446C68.1015 60.3197 67.9781 60.4073 67.8795 60.5075C67.8055 60.5826 67.8178 60.5826 67.9165 60.5075C67.6452 60.8329 67.4478 61.1208 67.3245 61.3711C67.2012 61.5965 67.1149 61.9345 67.0656 62.3851Z" fill="currentColor"/>
<path d="M48.3337 55.2117C48.6543 54.3856 49.4189 53.8223 50.6274 53.5218C51.762 53.2214 52.8225 53.259 53.8091 53.6345C54.8203 54.035 55.2767 54.6859 55.178 55.5872C54.9067 56.4634 54.5614 57.5399 54.1421 58.8167C53.7475 60.0684 53.3652 61.3576 52.9952 62.6845C52.0086 66.0892 51.4413 68.4925 51.2934 69.8945C50.9234 72.1476 50.3068 73.3617 49.4436 73.537C49.1969 73.5874 48.9626 73.6246 48.7407 73.6495C48.1981 73.675 47.8527 73.8248 47.7048 74.1002C47.5567 74.3755 47.3101 74.5757 46.9648 74.7013C46.6195 74.851 46.2372 74.9139 45.818 74.889C45.4233 74.889 45.0164 74.789 44.5971 74.5888C44.1778 74.4135 43.8201 74.1506 43.5242 73.8C42.8336 72.9487 42.698 71.8096 43.1172 70.3826C43.5119 67.6539 44.5108 64.1865 46.1139 59.9808C46.8785 57.9029 47.6184 56.3132 48.3337 55.2117ZM55.326 49.5789C54.1174 49.8293 53.1309 49.7542 52.3663 49.3536C51.6264 48.953 51.1947 48.4774 51.0714 47.9266C50.9481 47.3508 51.1208 46.7625 51.5894 46.1617C52.132 45.4106 52.9459 44.9225 54.0311 44.6972C54.5244 44.6471 54.882 44.6221 55.104 44.6221C55.326 44.6221 55.5973 44.6721 55.9179 44.7722C56.7318 44.8474 57.2621 45.2104 57.5087 45.8613C57.854 46.412 57.8787 47.0379 57.5827 47.7388C57.3114 48.4398 56.5592 49.0532 55.326 49.5789Z" fill="currentColor"/>
<path d="M41.6445 67.4544C41.6445 68.7813 41.8048 69.9329 42.1255 70.9092C42.1255 71.7103 41.9404 72.2736 41.5705 72.599C41.2005 72.9496 40.7319 73.1244 40.1646 73.1244C39.622 73.15 39.0424 73.0371 38.4258 72.7868C37.8092 72.5615 37.2789 72.2736 36.835 71.9231C36.4157 71.5726 36.1444 71.2972 36.0211 71.097C35.8977 70.8717 35.7004 70.5462 35.4291 70.1207C35.0099 68.1429 34.8125 66.8537 34.8372 66.2528C34.8618 65.6519 34.9112 65.1387 34.9852 64.7132C33.752 65.3641 32.9011 65.9273 32.4324 66.403C31.5692 67.2792 30.8416 68.4058 30.2497 69.7827C30.0524 70.8842 29.892 71.46 29.7687 71.51C29.6454 71.5852 29.4851 71.6352 29.2878 71.6603C29.0904 71.6853 28.8808 71.7729 28.6588 71.9231C28.4369 72.0733 28.2272 72.1985 28.0299 72.2987C27.8326 72.3987 27.6353 72.4989 27.438 72.599C26.9693 72.8744 26.661 73.0121 26.513 73.0121C25.1072 73.4626 23.763 73.2625 22.4805 72.4113C21.9379 72.0358 21.5185 71.5601 21.2226 70.9843C20.9266 70.3835 20.8527 69.7451 21.0006 69.0692C22.0612 64.4378 23.5164 59.7188 25.3661 54.9121C26.5007 51.9831 27.5859 49.6674 28.6218 47.965C28.8685 47.5645 29.1151 47.1389 29.3617 46.6882C29.8797 45.787 30.2373 45.1737 30.4346 44.8482C30.188 44.1973 30.188 43.6341 30.4346 43.1584C30.7059 42.6577 31.1006 42.2697 31.6185 41.9943C32.1611 41.6939 32.7777 41.4936 33.4684 41.3935C34.1589 41.2933 34.8125 41.2808 35.4291 41.3559C36.909 41.5812 37.6982 42.1696 37.7969 43.1209C37.6489 43.5715 37.4392 44.1097 37.1679 44.7356C36.9213 45.3614 36.6623 45.9998 36.391 46.6507C36.1444 47.2766 35.8977 47.8649 35.6511 48.4157C35.4291 48.9664 35.2565 49.3795 35.1331 49.6548C35.0345 49.9052 34.8742 50.3558 34.6522 51.0067C34.4549 51.6326 34.2329 52.3211 33.9863 53.0721C33.7643 53.7981 33.5546 54.474 33.3573 55.0999L32.9134 56.4142C32.8147 56.7647 32.6544 57.3029 32.4324 58.0289C32.2104 58.7299 31.9761 59.6061 31.7295 60.6576C32.0501 60.4072 32.3091 60.1193 32.5064 59.7939C32.7284 59.4434 33.0367 59.0554 33.4314 58.6298C33.8506 58.2042 34.3809 57.7911 35.0222 57.3906C35.6881 56.965 36.391 56.6896 37.131 56.5644C38.7341 56.289 40.1893 56.8148 41.4965 58.1416C42.483 59.143 42.7914 60.645 42.4214 62.6478C42.2734 63.4739 42.0885 64.3126 41.8665 65.1638C41.6691 65.9899 41.5952 66.7535 41.6445 67.4544Z" fill="currentColor"/>
<path d="M7.32097 73.65C6.06311 73.7004 4.90389 73.5375 3.84334 73.1621C2.80744 72.8116 1.95653 72.3234 1.2906 71.6975C0.64933 71.0717 0.242372 70.3456 0.0697236 69.5195C-0.102925 68.6683 0.0450595 67.8047 0.513678 66.9284C1.15494 65.877 2.43748 65.564 4.36128 65.9897C5.81646 66.29 6.81536 66.4528 7.35796 66.4778C7.92524 66.5029 8.40617 66.4277 8.80081 66.2525C10.6013 65.6517 11.6125 65.0007 11.8345 64.2998C11.9825 63.774 11.6618 63.1607 10.8726 62.4598C10.552 62.1593 10.1944 61.8589 9.79973 61.5585C9.40508 61.2581 9.07211 60.9577 8.80081 60.6573C7.56759 59.731 6.59339 58.667 5.87812 57.4653C5.18753 56.2387 4.90389 54.9118 5.02722 53.4848C5.15053 52.0579 5.38484 50.8813 5.73014 49.955C6.07544 49.0037 6.50706 48.165 7.02501 47.439C7.93755 46.1622 9.12148 45.1233 10.5766 44.3222C12.2538 43.446 13.598 42.8827 14.6092 42.6324C16.607 42.1817 18.6295 42.1442 20.6766 42.5197C21.3672 42.6449 21.9591 42.8827 22.4524 43.2332C22.9457 43.5837 23.439 43.9467 23.9322 44.3222C24.7955 45.1984 25.0051 46.0871 24.5612 46.9884C24.3886 47.3889 24.1173 47.7144 23.7473 47.9647C23.3773 48.2151 22.9827 48.3528 22.5634 48.3778C22.6127 49.0537 22.4894 49.5544 22.1934 49.8799C21.6262 50.4557 20.6396 50.8312 19.2337 51.0064C17.2113 50.8562 15.8424 50.9689 15.1272 51.3444C14.2886 51.7951 13.9803 52.7714 14.2023 54.2734C14.2516 54.5989 14.4489 54.9369 14.7942 55.2873C15.1642 55.6378 15.5834 56.0134 16.0521 56.4139C16.5454 56.8145 17.051 57.2651 17.569 57.7658C18.1116 58.2665 18.5802 58.8423 18.9747 59.4932C20.356 61.7963 20.245 64.4875 18.6418 67.5668C17.4579 69.87 15.4355 71.5974 12.5745 72.749C11.0946 73.3498 9.34341 73.65 7.32097 73.65Z" fill="currentColor"/>
</g>
<defs>
<clipPath id="clip0_115_2212">
<rect width="77" height="83" fill="currentColor"/>
</clipPath>
</defs>
</svg>
