<svg width="43" height="43" viewBox="0 0 43 43" fill="none" xmlns="http://www.w3.org/2000/svg">
<g clip-path="url(#clip0_115_2505)">
<path fill-rule="evenodd" clip-rule="evenodd" d="M27.0024 28.5308C27.4231 28.11 27.4589 27.4655 27.1635 26.9373C26.3399 25.487 26.5458 23.616 27.7812 22.3806L32.2573 17.9045L33.1525 18.7997C33.6449 19.2921 34.4506 19.2921 34.943 18.7997C35.4354 18.3073 35.4354 17.5016 34.943 17.0093L25.9908 8.05705C25.4984 7.56467 24.6927 7.56467 24.2003 8.05705C23.7079 8.54942 23.7079 9.35512 24.2003 9.84749L25.0955 10.7427L20.6194 15.2188C19.384 16.4542 17.513 16.6601 16.0627 15.8365C15.5346 15.5411 14.89 15.5769 14.4692 15.9977L14.3529 16.1141C13.8605 16.6064 13.8605 17.4121 14.3529 17.9045L18.8111 22.3627L12.5624 28.6472C12.07 29.1395 12.07 29.9452 12.5624 30.4376C13.0548 30.93 13.8605 30.93 14.3529 30.4376L20.6015 24.1532L25.0955 28.6472C25.5879 29.1395 26.3936 29.1395 26.886 28.6472L27.0024 28.5308Z" fill="#F45844"/>
</g>
<defs>
<clipPath id="clip0_115_2505">
<rect width="30.3849" height="30.3849" fill="white" transform="translate(21.5146) rotate(45)"/>
</clipPath>
</defs>
</svg>
