<svg width="32" height="32" viewBox="0 0 32 32" fill="none" xmlns="http://www.w3.org/2000/svg">
<path d="M27.928 11.1604C27.87 9.8834 27.667 9.0104 27.37 8.2474C27.063 7.4584 26.653 6.7894 25.986 6.1224C25.319 5.4554 24.65 5.0454 23.861 4.7384C23.098 4.4414 22.225 4.2384 20.948 4.1804C19.668 4.1224 19.259 4.1084 16 4.1084C12.741 4.1084 12.332 4.1224 11.052 4.1804C9.775 4.2384 8.902 4.4414 8.139 4.7384C7.35 5.0454 6.681 5.4554 6.014 6.1224C5.347 6.7894 4.937 7.4584 4.63 8.2474C4.333 9.0104 4.13 9.8834 4.072 11.1604C4.014 12.4404 4 12.8494 4 16.1084C4 19.3674 4.014 19.7764 4.072 21.0564C4.13 22.3334 4.333 23.2064 4.63 23.9694C4.937 24.7584 5.347 25.4274 6.014 26.0944C6.681 26.7614 7.35 27.1714 8.139 27.4784C8.902 27.7754 9.775 27.9774 11.052 28.0364C12.332 28.0944 12.741 28.1084 16 28.1084C19.259 28.1084 19.668 28.0944 20.948 28.0364C22.225 27.9784 23.098 27.7754 23.861 27.4784C24.65 27.1714 25.319 26.7614 25.986 26.0944C26.653 25.4274 27.063 24.7584 27.37 23.9694C27.667 23.2064 27.869 22.3334 27.928 21.0564C27.986 19.7764 28 19.3674 28 16.1084C28 12.8494 27.986 12.4404 27.928 11.1604ZM25.768 20.9574C25.715 22.1274 25.519 22.7624 25.355 23.1854C25.137 23.7454 24.877 24.1454 24.457 24.5654C24.037 24.9854 23.637 25.2454 23.077 25.4634C22.654 25.6274 22.019 25.8234 20.849 25.8764C19.584 25.9344 19.204 25.9464 16 25.9464C12.796 25.9464 12.416 25.9344 11.151 25.8764C9.981 25.8234 9.346 25.6274 8.923 25.4634C8.363 25.2454 7.963 24.9854 7.543 24.5654C7.123 24.1454 6.863 23.7454 6.645 23.1854C6.481 22.7624 6.285 22.1274 6.232 20.9574C6.174 19.6924 6.162 19.3124 6.162 16.1084C6.162 12.9044 6.174 12.5244 6.232 11.2594C6.285 10.0894 6.481 9.4544 6.645 9.0314C6.863 8.4714 7.123 8.0714 7.543 7.6514C7.963 7.2314 8.363 6.9714 8.923 6.7534C9.346 6.5894 9.981 6.3934 11.151 6.3404C12.416 6.2824 12.796 6.2704 16 6.2704C19.204 6.2704 19.584 6.2824 20.849 6.3404C22.019 6.3934 22.654 6.5894 23.077 6.7534C23.637 6.9714 24.037 7.2314 24.457 7.6514C24.877 8.0714 25.137 8.4714 25.355 9.0314C25.519 9.4544 25.715 10.0894 25.768 11.2594C25.826 12.5244 25.838 12.9044 25.838 16.1084C25.838 19.3124 25.826 19.6924 25.768 20.9574ZM16 9.9464C12.597 9.9464 9.838 12.7054 9.838 16.1084C9.838 19.5114 12.597 22.2704 16 22.2704C19.403 22.2704 22.162 19.5114 22.162 16.1084C22.162 12.7054 19.403 9.9464 16 9.9464ZM16 20.1084C13.791 20.1084 12 18.3174 12 16.1084C12 13.8994 13.791 12.1084 16 12.1084C18.209 12.1084 20 13.8994 20 16.1084C20 18.3174 18.209 20.1084 16 20.1084ZM23.846 9.7024C23.846 10.4974 23.201 11.1424 22.406 11.1424C21.611 11.1424 20.966 10.4974 20.966 9.7024C20.966 8.9074 21.611 8.2624 22.406 8.2624C23.201 8.2624 23.846 8.9074 23.846 9.7024Z" fill="white"/>
</svg>
