<svg width="30" height="31" viewBox="0 0 30 31" fill="none" xmlns="http://www.w3.org/2000/svg">
<path d="M26.3756 8.28715V12.7628C26.3756 12.7628 24.7931 12.6971 23.6184 12.3859C21.9816 11.9481 20.9316 11.275 20.9316 11.275C20.9316 11.275 20.2031 10.7931 20.1488 10.7603V20.0087C20.1488 20.5225 20.0128 21.8087 19.605 22.8812C19.2478 23.7981 18.7359 24.6475 18.0938 25.3928C18.0938 25.3928 17.0878 26.6406 15.3197 27.4778C13.7259 28.2334 12.3225 28.2156 11.9044 28.2334C11.9044 28.2334 9.48469 28.3309 7.30219 26.8478L7.29094 26.8365V26.8478C6.55313 26.3331 5.89501 25.7125 5.33813 25.0056C4.64719 24.1243 4.22344 23.08 4.11469 22.7734V22.7621C3.94126 22.2418 3.57563 20.9837 3.63094 19.7696C3.71813 17.6303 4.43626 16.3112 4.62657 15.9831C5.12626 15.0831 5.77969 14.2778 6.55688 13.6028C8.34938 12.1 10.6894 11.4156 13.0097 11.7146L13.0041 16.3046C12.6263 16.1818 12.2306 16.119 11.8331 16.119C9.73313 16.119 8.03063 17.8318 8.03063 19.9468C8.03063 22.0618 9.73313 23.7746 11.8331 23.7746C12.4875 23.7746 13.1297 23.6059 13.6988 23.2825C14.8059 22.6534 15.5278 21.5143 15.6244 20.244V20.2346C15.6272 20.2215 15.6272 20.2084 15.6272 20.1962C15.6291 20.1653 15.6319 20.139 15.6319 20.1109C15.6413 19.8821 15.6413 19.6506 15.6413 19.4171V1.9834H20.1497C20.1422 1.9834 20.0953 2.41559 20.2097 3.08309H20.2041C20.34 3.88746 20.7103 5.03684 21.6994 6.16934C22.095 6.59684 22.5403 6.97559 23.0269 7.29715C23.1938 7.4059 23.3663 7.50621 23.5434 7.59809C24.6966 8.17277 25.8225 8.34809 26.3766 8.28809L26.3756 8.28715Z" fill="white"/>
</svg>
