<svg width="31" height="30" viewBox="0 0 31 31" fill="none" xmlns="http://www.w3.org/2000/svg">
<path d="M27.5765 9.00164C27.2746 7.90961 26.385 7.05048 25.2562 6.75867C23.2087 6.22852 15.0009 6.22852 15.0009 6.22852C15.0009 6.22852 6.79214 6.22852 4.74558 6.75867C3.61589 7.05048 2.72714 7.91052 2.42527 9.00164C1.87683 10.9809 1.87683 15.1089 1.87683 15.1089C1.87683 15.1089 1.87683 19.2377 2.42527 21.2161C2.72714 22.3081 3.61683 23.1672 4.74558 23.459C6.79308 23.9892 15.0009 23.9892 15.0009 23.9892C15.0009 23.9892 23.2096 23.9892 25.2562 23.459C26.3859 23.1672 27.2746 22.3072 27.5765 21.2161C28.125 19.2368 28.125 15.1089 28.125 15.1089C28.125 15.1089 28.125 10.98 27.5765 9.00164ZM12.375 18.9151V11.3026L19.1943 15.1089L12.375 18.9151Z" fill="white"/>
</svg>
