<svg width="44" height="44"  viewBox="0 0 42 42"
     fill="none" xmlns="http://www.w3.org/2000/svg">
    <path d="M35.8493 6.15067L32.55 9.45C29.8781 6.77786 26.3624 5.11481 22.6018 4.74423C18.8413 4.37364 15.0685 5.31844 11.9265 7.41764C8.78439 9.51685 6.4674 12.6406 5.37026 16.2566C4.27312 19.8726 4.46372 23.7572 5.90959 27.2484C7.35545 30.7396 9.96712 33.6215 13.2996 35.403C16.6321 37.1846 20.4792 37.7555 24.1854 37.0185C27.8916 36.2816 31.2277 34.2823 33.6251 31.3615C36.0226 28.4406 37.3331 24.7788 37.3333 21H42C42 25.8585 40.3153 30.5666 37.2331 34.3222C34.1509 38.0778 29.8618 40.6485 25.0967 41.5963C20.3316 42.5441 15.3853 41.8104 11.1005 39.5201C6.81577 37.2298 3.45769 33.5247 1.59848 29.036C-0.260742 24.5474 -0.506068 19.5529 0.904301 14.9037C2.31467 10.2545 5.29347 6.23807 9.33315 3.53888C13.3728 0.839691 18.2234 -0.37529 23.0585 0.100953C27.8936 0.577197 32.4139 2.7152 35.8493 6.15067Z" fill="#E982C7"
    />
</svg>
